<svg xmlns="http://www.w3.org/2000/svg" width="170" height="170" viewBox="0 0 170 170">
  <g id="Polygon_1" data-name="Polygon 1" fill="rgba(255,255,255,0)">
    <path d="M107.776,0l39.449,22.776L170,62.224v45.551l-22.776,39.449L107.776,170H62.224L22.776,147.224,0,107.776V62.224L22.776,22.776,62.224,0Z" stroke="none"/>
    <path d="M 106.9718475341797 3 L 63.02812194824219 3.000030517578125 L 24.97181701660156 24.97183227539063 L 3 63.02817535400391 L 3 106.9718475341797 L 24.97181701660156 145.0281677246094 L 63.02815246582031 167 L 106.9718322753906 167 L 145.0281677246094 145.0281677246094 L 167 106.9718475341797 L 167 63.02814483642578 L 145.0281829833984 24.97181701660156 L 106.9718475341797 3 M 107.7756958007813 0 L 147.2243347167969 22.77566528320313 L 170 62.22431182861328 L 170 107.7756958007813 L 147.2243041992188 147.2243041992188 L 107.7756652832031 170 L 62.22431182861328 170 L 22.77566528320313 147.2243041992188 L 0 107.7756958007813 L 0 62.22433471679688 L 22.77566528320313 22.77569580078125 L 62.22428894042969 3.0517578125e-05 L 107.7756958007813 0 Z" stroke="none" fill="rgba(255,255,255,0.25)"/>
  </g>
</svg>
