<svg xmlns="http://www.w3.org/2000/svg" width="82.214" height="163.944" viewBox="0 0 82.214 163.944">
  <path id="Path_2616" data-name="Path 2616" d="M727.973,491.319c.216,2.248-.644,4.607-.744,6.85-.172,3.336-.333,6.739-.355,9.987a4.247,4.247,0,0,1-.716,2.354,7.832,7.832,0,0,1-2.176,1.765c-2.187,1.682-3.081,3.531-4.147,6.106-.411.96-.91,2.748-1.937,3.208-.827.366-1.621,0-2.515.5-1.066.588-1.41,1.043-2.7,1.154a5.216,5.216,0,0,0-2.4.605c-2.409,1.227-4.263.134-5.446,3.076-.416,1.049-.5,2.315-.955,3.386s-1.116,1.566-1.355,2.653c-.2.872.328,2.359-.266,3.1-.366.483-1.243.633-1.765.888a11.154,11.154,0,0,0-3.187,1.665c-.844.866-.932,2.237-1.893,3.031-.894.71-2.4.822-3.253,1.588-2.132,1.915-1.565,4.99-4.18,6.584a15.206,15.206,0,0,1-2.7,1.61,15.772,15.772,0,0,1-4.252.15c.372-1.088,1.615-1.066,1.871-2.459.222-1.221.089-2.57.261-3.775a45.859,45.859,0,0,0,.161-8.821,3.407,3.407,0,0,0-1.249-2.753,2.487,2.487,0,0,1-.333-.522c-.56-.96-.732-2.27.489-2.792.394-.172.955.2,1.371-.089.683-.461.522-2.093,1.221-2.62.744-.583,2.354-.411,3.226-.977,1.754-1.11,1.377-3.6,2.776-4.641.477-.355.866-.178,1.482-.244a10.01,10.01,0,0,0,2.592-.694c1.066.938,1.571,2.526,2.881.439a3.4,3.4,0,0,0,.255-2.731c-.189-.589-.744-1.027-.938-1.632a8.967,8.967,0,0,1-.305-3.159c.5-.81,1.555-.55,2.465-.55a3.857,3.857,0,0,0,2.6-1.221c.25-.344.061-1.021.25-1.216.4-.444.816-.133,1.249-.422.694-.455.782-1.133,1.221-1.9a15.67,15.67,0,0,1,1.588-2.22c1.249-1.482,3.78-2.92,3.181-5.252-.339-1.371-1.016-1.854-.955-3.58.022-.844.455-2.42.155-3.27-.4-1.021-1.876-1.765-2.448-2.875-.366-.716-.411-1.543-.766-2.226l-.061-.133a4.557,4.557,0,0,0,.528-2.526c-.111-2.287-.76-4.274-.833-6.589v-.322a4.27,4.27,0,0,1,.461-2.332c.239-.416.738-.067.782-1.249.044-1.521-.76-1.5-1.632-2.3-1.771-1.66-2.048-5.018-2.181-7.394-.084-1.238.067-3.2-.983-4.03-1.021-.81-1.959-.572-2.853-1.765-.589-.81-.983-1.726-1.943-2.226-1.066-.549-2.137-.505-2.942-1.532-.766-.955-.849-1.871-2.159-2.282-.544-.178-1.222.039-1.76-.111-.727-.217-1.2-.938-1.755-1.466-1.982-1.849-3.464-3.9-5.618-5.446-1.049-.744-1.271-1.51-2.048-2.5a18.083,18.083,0,0,0-3.031-2.731c-.832-.633-1.748-.81-2.575-1.332-1.077-.694-1.549-2.071-2.354-3.075-.96-1.216-2.315-1.61-3.664-2.243-1.227-.583-2.481-.366-2.837-1.632-.722-2.581,2.837-3.314,1.027-5.546a9.75,9.75,0,0,1-1.943-3.225c-.394-1.066-1.437-1.937-1.721-2.964-1.893-.844-3.425.2-5.34-.144-.743-.133-.788-.527-1.377-.727-.738-.255-1.615-.194-2.348-.389-.422-3.12-1.554-8.066-4.108-10.247-1.41-1.221-1.932-1.332-2.415-3.225a10.3,10.3,0,0,0-1.854-3.647,1.943,1.943,0,0,0,.261-.3c.85-1.177,1.16-3.164,2.681-3.708,1.61-.572,3.364.522,4.952-.544,2.026-1.377,2.154-2.315,5.013-2.337.844-.022,1.726.067,2.576,0,1.343-.128,1.216-.261,2.259-.916,1.2-.76,2.293-2,3.492-2.7.544-.333,1.376-.355,1.9-.7,1.588-1.027,1.81-3.358,2.2-5.079,2.948-.394,6.478,1.393,9.381,2.132a8.281,8.281,0,0,0,4.663.066c1.615-.522,2.853-2.437,4.607-1.393,4.68,2.809-3.014,4.929-1.754,7.283.333.627,1.116.261,1.576.6a14.764,14.764,0,0,1,1.282,1.51c1.132,1.11,1.443,1.177,3.059,1.177,2.459.022,5.14-.638,7.65-.638.439,1.56-.55,2.792-1.377,4.147-.938,1.465-1.116,3.292-2.181,4.685-1.393,1.81-3.53,1.155-4.929,2.531s-.539,3.658-1.11,5.3c-.261.721-.8,1.393-1.11,2.159a27.663,27.663,0,0,1-.766,2.864c-.938,1.887-2.964,2.3-4.141,3.614-1.565,1.787-.583,4.663-.894,6.8-.261,1.915-1.221,3.314-.283,5.346a14.55,14.55,0,0,0,3.969,5.118c2.159,1.682,2.837,4.324,4.713,6.017.827.744,1.827.677,2.676,1.249.871.561,1.227,1.565,1.965,2.243,2.132,1.943,5.3,1.726,7.588,3.4,1.588,1.155,3.187,1.332,4.863,2.132,1.982.982,3.158,3.8,4.769,5.218.727.627,1.6,1.8,2.292,2.287.833.538,1.965.366,2.7,1.11.766.811.328,1.177.349,2.187a11.382,11.382,0,0,0,1.049,3.68,47.063,47.063,0,0,0,3.88,8.354c1.676,2.9.106,6.206,1.26,9.415A11.767,11.767,0,0,1,727.973,491.319Z" transform="translate(-645.794 -387.707)" fill="rgba(255,255,255,0.99)"/>
</svg>
