<svg xmlns="http://www.w3.org/2000/svg" width="78.058" height="182.916" viewBox="0 0 78.058 182.916">
  <g id="Group_2633" data-name="Group 2633" transform="translate(-1581.998 -428.686)">
    <path id="Path_2612" data-name="Path 2612" d="M717.709,325.539c.755-.338,1.665.988,2.042,1.66.683,1.221.494,1.255,1.793,1.815,1.138.505,1.355.555,1.482,1.7.144,1.188-.611,1.754.483,2.326,1.3.677,3.314-.711,3.869,1.294.383,1.388-.933,2.459-1.6,3.514a9.773,9.773,0,0,0-.833,2.176c-.338.916-1,1.266-1.638,1.9a4.832,4.832,0,0,0-1.532,2.5c-.472,1.849-.022,4.008.3,5.773,1.043,5.573-7.405,5.179-10.947,5.179a4.557,4.557,0,0,0-2.859.477c-1.01.683-1.21,1.738-2.4,2.226-2.082.866-6.572.244-6,3.958,3.087.128,5.945-.189,8.915.8,1.232.411,2.559.76,2.976,2.115.494,1.6-.339,1.6-1.666,1.477-1.665-.133-1.449-.05-2.181,1.527a3.744,3.744,0,0,1-2.171,2.315c-2.842,1.021-4.818-.428-5.212-3.253-2.97-.883-5.907-.039-7.05-3.736-.461-1.5.078-1.737.661-2.992a3.709,3.709,0,0,0-.444-3.7c-.777-1.288-1.46-2.859.4-3.392,1.588-.45,3.67,1.427,5.218.555,1.665-.927.516-2.615-.2-3.553a8.019,8.019,0,0,1-1.4-2.254c-.228-.655-.106-1.4-.344-2-.405-1.044-1.51-1.427-2.143-2.226a5.507,5.507,0,0,1-.855-2.1,5.56,5.56,0,0,0-2.415-3.131c-1.077-.855-1.266-1.91-2.3-2.687-1.11-.827-2.986-1.182-2.747-2.925.222-1.532,1.765-1.071,3.147-1.071a32.2,32.2,0,0,1,6.506.194c2.415.511,2.5,1.632,4.363,2.62,1.416.738,3.58.633,5.174.777,2.032.172,2.1-.272,3.68-1.482,1.416-1.083,2.826-.827,4.4-1.321C717.348,331.578,717.148,328.542,717.709,325.539Z" transform="translate(910.774 103.202)" fill="#fff"/>
    <path id="Path_2613" data-name="Path 2613" d="M721.94,333.349c0,1.571.488,4.041-.811,5.146-1.31,1.121-2.8,1.066-3.392,3.086-.416,1.443-.694,3.63.455,4.735.544.522,1.394.622,1.715,1.366.25.577-.122,1.577.017,2.209.378,1.776,2.165,2.193,3.136,3.53,1.083,1.471,1,3.369,1.771,4.941.755,1.549,2.215,2.642,2.8,4.319a22.251,22.251,0,0,1,.982,6.784c.128,2.287.178,4.613.278,6.9.067,1.549.577,5.057-.278,6.451-.9,1.476-1.848,2.082-2.592,3.608-.783,1.632-2.088,3.458-3.947,3.747-1.366.211-1.249-.044-1.9-1.077-.377-.6-.86-.977-1.116-1.5-1.071-2.137,3.119-5.634.422-6.539-1.965.033-4.513,4.441-5.39,6.051-1.76,3.236,3.486,2.931,3.775,5.845a71,71,0,0,1-.005,9.093c-.078,1.921-.439,5.462-1.638,7.094-1.132,1.538-2.237-.105-3.7.76-.949.555-1.737,2.393-2.42,3.242-1.1,1.344-1.627,1.027-3.153,1.416a14.038,14.038,0,0,0-4.208,2.376,25.375,25.375,0,0,0-8.787,10.924,24.926,24.926,0,0,1-3.625,6.822c-1.1,1.277-2.554,2.193-3.575,3.592-.988,1.36-2.409,6.228-.816,7.538a42.207,42.207,0,0,1,4.452-1.665,8.381,8.381,0,0,0,4.086-2.365c.566-.677.761-1.166,1.438-1.582.505-.327,1.088-.427,1.582-.8.96-.711,1.743-1.754,2.648-2.548,1.094-.96,2.348-1.654,3.381-2.631,1.371-1.31,1.36-3.381,2.609-4.663,1.227-1.254,3.047-1.776,4.247-3.258,1.177-1.449,2.048-3.353,3.875-4.03,1.449-.538,2.509-.383,3.075,1.2.3.855.211,1.232.883,1.737.944.705,1.132.167,1.676,1.254.727,1.471.433,4.3,2.015,5.146.9.472,3.348.178,4.313.122,6.117-.344,1.155-6.772,3.708-9.631.477-.538.594-.344,1.144-.583a15.224,15.224,0,0,0,3.569-1.909c2.87-2.281-.289-2.06-1.9-3.236-.9-.66-1.527-1.332-2.415-2.02a3.45,3.45,0,0,1-1.693-2.182c-.827-4.152,5.607.61,6.839.877,2.054.439,4.857-.117,6.084-1.887,1.682-2.409-.644-5.7.277-8.171,1.9-.433,1.949,3.714,3.836,4.43,3.1,1.188,3.486-.039,3.692-3.042.078-1.232-.389-1.621-.8-2.576a14.344,14.344,0,0,1-.716-5.834,11.307,11.307,0,0,1,1.766-5.451c.616,1.133,1.754,3.225,1.782,4.569.838.272,1.582,1.06,2.587.955,1.532-.183,1.765-2.609,2.2-3.853,1.255-3.514.994-5.751-1.255-8.721a14.26,14.26,0,0,1-2.62-4.741,8.723,8.723,0,0,0-.533-2.082c-.444-.65-1.354-.55-1.887-1.044-1.155-1.071-.816-3.664-1.366-5.19a6.1,6.1,0,0,0-3.292-3.914,3.8,3.8,0,0,1-2.431-3.564c-.055-.96.833-1.915.622-2.676-.122-.461-1.155-1.266-1.571-1.566-1.876-1.288.016-5.9.139-8.2.177-3.331-.611-4.08-3.414-5.7-2.11-1.216-2.5-3.236-4.042-4.929-1.382-1.516-4.2-1.16-6.006-2.354-1.26-.838-1.893-1.865-3.264-2.42C724.11,334.631,723.073,333.715,721.94,333.349Z" transform="translate(903.14 138.996)" fill="#fff"/>
    <path id="Path_2614" data-name="Path 2614" d="M700.937,350.246c1.088.822.383,1.4.977,2.27.216.328.738.278.944.516.289.35.039.8.166,1.194.322.955,1.593,1.01,1.366,2.193-.167.872-1.1,1.4-1.455,2.182-.411.916-.183,2.015-1.31,2.437-.916.35-2.365.022-3.136.711-.694.616-.9,2.276-1.06,3.1-.183.994-.305,1.965-.4,3.02a16.231,16.231,0,0,1-.155,3.175c-.3.944-1.693,2.459-2.676,2.548-1.166.1-1.8-1.488-2.448-2.265a8.43,8.43,0,0,1-.949-1.1c-.267-.455-.211-1.01-.488-1.449-.694-1.11-1.665-1.327-2.037-2.77-.394-1.5-.4-1.826.849-2.415,1.1-.505,1.132-1.36,1.366-2.453.1-.466.011-1.149.544-1.438.327-.183.938.044,1.315-.061,1.571-.444,1.282-2.232,1.882-3.4.489-.938,1.36-.788,2.054-1.521.794-.849.838-1.41,1.949-1.926C699.155,352.367,699.722,351.24,700.937,350.246Z" transform="translate(916.011 215.896)" fill="#fff"/>
    <path id="Path_2615" data-name="Path 2615" d="M696.9,353.965a22.7,22.7,0,0,0,2.837-.211,1.526,1.526,0,0,1,1.232.261c.76.677.144,2.115,1.221,2.537.927.372,2.02-.317,2.914-.061.522.139.533.505.616,1.077a25.861,25.861,0,0,1-.039,3.531,15.448,15.448,0,0,0-.066,1.893,6.072,6.072,0,0,0,1.121,2.165c.794,1.293.649,2.493.577,3.958a13.306,13.306,0,0,0,.072,2.787,5.954,5.954,0,0,1,.211,2.1c-.122.472-.65.9-.922,1.282a4.577,4.577,0,0,0-.788,1.693c-.234,1.049-.633,4.258-1.976,2.193a3.211,3.211,0,0,0-3.236-1.7,12.778,12.778,0,0,1-2.065.211,2.525,2.525,0,0,1-1.7-1.077c-.378-.422-.566-.994-.91-1.443-.611-.788-.838-.644-.794-1.765a11.915,11.915,0,0,1,.694-2.753,12.206,12.206,0,0,0,.311-3.142c0-1.088.239-3.142-.966-3.508-2.109-.633-2.265,2.714-4.169,3.125a1.483,1.483,0,0,1-1.66-.616c-.56-.672-.949-.65-1.837-.81-1.5-.266-4.607-.65-3.12-2.948.278-.444.794-.749,1.11-1.2a16.3,16.3,0,0,0,.922-2.481c.327-.711.949-.738,1.521-1.266a13,13,0,0,0,1.432-2.259c1.3-1.854,3.164-.533,4.985-.677A5.811,5.811,0,0,0,696.9,353.965Z" transform="translate(897.93 231.757)" fill="#fff"/>
  </g>
</svg>
